<?xml version="1.0" encoding="utf-8"?>
<!-- Generator: Adobe Illustrator 25.3.1, SVG Export Plug-In . SVG Version: 6.00 Build 0)  -->
<svg version="1.1" id="图层_1" xmlns="http://www.w3.org/2000/svg" xmlns:xlink="http://www.w3.org/1999/xlink" x="0px" y="0px"
	 viewBox="0 0 1000 1000" style="enable-background:new 0 0 1000 1000;" xml:space="preserve">
<style type="text/css">
	.st0{fill:url(#SVGID_1_);}
	.st1{fill:#B7BCBF;}
	.st2{fill:url(#SVGID_2_);}
	.st3{fill:#FFFFFF;}
	.st4{fill:url(#SVGID_3_);}
</style>
<g>
	<linearGradient id="SVGID_1_" gradientUnits="userSpaceOnUse" x1="500" y1="1000" x2="500" y2="-2.000888e-10">
		<stop  offset="0" style="stop-color:#000000"/>
		<stop  offset="1" style="stop-color:#151718"/>
	</linearGradient>
	<path class="st0" d="M848.03,1000H151.97C68.04,1000,0,931.96,0,848.03V151.97C0,68.04,68.04,0,151.97,0h696.06
		C931.96,0,1000,68.04,1000,151.97v696.06C1000,931.96,931.96,1000,848.03,1000z"/>
	<g>
		<g>
			<g>
				<g>
					<path class="st3" d="M517.21,207.58l-48.19,68.5c-7.57,10.67-19.97,17.21-33.39,17.21H172.99v-86.06
						C172.99,207.58,517.21,207.58,517.21,207.58z"/>
					<polygon class="st3" points="844.22,207.58 431.16,792.76 155.78,792.76 568.84,207.58 					"/>
					<path class="st3" d="M482.79,792.76l48.54-68.84c7.57-10.67,19.97-17.21,33.39-17.21h262.3v86.06H482.79z"/>
				</g>
			</g>
		</g>
	</g>
</g>
</svg>
